<svg viewBox="0 0 330 200" xmlns="http://www.w3.org/2000/svg"><g><g><g><g><g><line x1="50" y1="177" x2="45" y2="177" style="visibility: inherit;" fill="rgb(0, 0, 0)" stroke="rgb(204, 204, 204)" stroke-width="1px"></line><line x1="50" y1="164.35714285714283" x2="45" y2="164.35714285714283" style="visibility: inherit;" fill="rgb(0, 0, 0)" stroke="rgb(204, 204, 204)" stroke-width="1px"></line><line x1="50" y1="151.7142857142857" x2="45" y2="151.7142857142857" style="visibility: inherit;" fill="rgb(0, 0, 0)" stroke="rgb(204, 204, 204)" stroke-width="1px"></line><line x1="50" y1="139.07142857142856" x2="45" y2="139.07142857142856" style="visibility: inherit;" fill="rgb(0, 0, 0)" stroke="rgb(204, 204, 204)" stroke-width="1px"></line><line x1="50" y1="126.42857142857142" x2="45" y2="126.42857142857142" style="visibility: inherit;" fill="rgb(0, 0, 0)" stroke="rgb(204, 204, 204)" stroke-width="1px"></line><line x1="50" y1="113.78571428571425" x2="45" y2="113.78571428571425" style="visibility: inherit;" fill="rgb(0, 0, 0)" stroke="rgb(204, 204, 204)" stroke-width="1px"></line><line x1="50" y1="101.14285714285714" x2="45" y2="101.14285714285714" style="visibility: inherit;" fill="rgb(0, 0, 0)" stroke="rgb(204, 204, 204)" stroke-width="1px"></line><line x1="50" y1="88.49999999999999" x2="45" y2="88.49999999999999" style="visibility: inherit;" fill="rgb(0, 0, 0)" stroke="rgb(204, 204, 204)" stroke-width="1px"></line><line x1="50" y1="75.85714285714282" x2="45" y2="75.85714285714282" style="visibility: inherit;" fill="rgb(0, 0, 0)" stroke="rgb(204, 204, 204)" stroke-width="1px"></line><line x1="50" y1="63.21428571428571" x2="45" y2="63.21428571428571" style="visibility: inherit;" fill="rgb(0, 0, 0)" stroke="rgb(204, 204, 204)" stroke-width="1px"></line><line x1="50" y1="50.57142857142855" x2="45" y2="50.57142857142855" style="visibility: inherit;" fill="rgb(0, 0, 0)" stroke="rgb(204, 204, 204)" stroke-width="1px"></line><line x1="50" y1="37.928571428571395" x2="45" y2="37.928571428571395" style="visibility: inherit;" fill="rgb(0, 0, 0)" stroke="rgb(204, 204, 204)" stroke-width="1px"></line><line x1="50" y1="25.285714285714235" x2="45" y2="25.285714285714235" style="visibility: inherit;" fill="rgb(0, 0, 0)" stroke="rgb(204, 204, 204)" stroke-width="1px"></line><line x1="50" y1="12.642857142857078" x2="45" y2="12.642857142857078" style="visibility: inherit;" fill="rgb(0, 0, 0)" stroke="rgb(204, 204, 204)" stroke-width="1px"></line></g><g transform="translate(40, 0)"><text x="0" y="177" dx="0em" dy="0.3em" style="text-anchor: end; visibility: hidden; font-family: Roboto, sans-serif; font-size: 12px; font-weight: 200;" fill="rgb(255, 255, 255)" stroke="none" stroke-width="1px">0.3</text><text x="0" y="164.35714285714283" dx="0em" dy="0.3em" style="text-anchor: end; visibility: inherit; font-family: Roboto, sans-serif; font-size: 12px; font-weight: 200;" fill="rgb(255, 255, 255)" stroke="none" stroke-width="1px">0.32</text><text x="0" y="151.7142857142857" dx="0em" dy="0.3em" style="text-anchor: end; visibility: hidden; font-family: Roboto, sans-serif; font-size: 12px; font-weight: 200;" fill="rgb(255, 255, 255)" stroke="none" stroke-width="1px">0.34</text><text x="0" y="139.07142857142856" dx="0em" dy="0.3em" style="text-anchor: end; visibility: inherit; font-family: Roboto, sans-serif; font-size: 12px; font-weight: 200;" fill="rgb(255, 255, 255)" stroke="none" stroke-width="1px">0.36</text><text x="0" y="126.42857142857142" dx="0em" dy="0.3em" style="text-anchor: end; visibility: hidden; font-family: Roboto, sans-serif; font-size: 12px; font-weight: 200;" fill="rgb(255, 255, 255)" stroke="none" stroke-width="1px">0.38</text><text x="0" y="113.78571428571425" dx="0em" dy="0.3em" style="text-anchor: end; visibility: inherit; font-family: Roboto, sans-serif; font-size: 12px; font-weight: 200;" fill="rgb(255, 255, 255)" stroke="none" stroke-width="1px">0.4</text><text x="0" y="101.14285714285714" dx="0em" dy="0.3em" style="text-anchor: end; visibility: hidden; font-family: Roboto, sans-serif; font-size: 12px; font-weight: 200;" fill="rgb(255, 255, 255)" stroke="none" stroke-width="1px">0.42</text><text x="0" y="88.49999999999999" dx="0em" dy="0.3em" style="text-anchor: end; visibility: inherit; font-family: Roboto, sans-serif; font-size: 12px; font-weight: 200;" fill="rgb(255, 255, 255)" stroke="none" stroke-width="1px">0.44</text><text x="0" y="75.85714285714282" dx="0em" dy="0.3em" style="text-anchor: end; visibility: hidden; font-family: Roboto, sans-serif; font-size: 12px; font-weight: 200;" fill="rgb(255, 255, 255)" stroke="none" stroke-width="1px">0.46</text><text x="0" y="63.21428571428571" dx="0em" dy="0.3em" style="text-anchor: end; visibility: inherit; font-family: Roboto, sans-serif; font-size: 12px; font-weight: 200;" fill="rgb(255, 255, 255)" stroke="none" stroke-width="1px">0.48</text><text x="0" y="50.57142857142855" dx="0em" dy="0.3em" style="text-anchor: end; visibility: hidden; font-family: Roboto, sans-serif; font-size: 12px; font-weight: 200;" fill="rgb(255, 255, 255)" stroke="none" stroke-width="1px">0.5</text><text x="0" y="37.928571428571395" dx="0em" dy="0.3em" style="text-anchor: end; visibility: inherit; font-family: Roboto, sans-serif; font-size: 12px; font-weight: 200;" fill="rgb(255, 255, 255)" stroke="none" stroke-width="1px">0.52</text><text x="0" y="25.285714285714235" dx="0em" dy="0.3em" style="text-anchor: end; visibility: hidden; font-family: Roboto, sans-serif; font-size: 12px; font-weight: 200;" fill="rgb(255, 255, 255)" stroke="none" stroke-width="1px">0.54</text><text x="0" y="12.642857142857078" dx="0em" dy="0.3em" style="text-anchor: end; visibility: inherit; font-family: Roboto, sans-serif; font-size: 12px; font-weight: 200;" fill="rgb(255, 255, 255)" stroke="none" stroke-width="1px">0.56</text></g><line x1="50" y1="0" x2="50" y2="177" fill="rgb(0, 0, 0)" stroke="rgb(204, 204, 204)" stroke-width="1px"></line></g></g><g transform="translate(50, 0)" clip-path="url(#clip_0)"><clipPath id="clip_0"><rect width="280" height="177"></rect></clipPath><g><g><g><line x1="0" y1="0" x2="0" y2="177" fill="rgb(0, 0, 0)" stroke="rgb(189, 189, 189)" stroke-width="1px" opacity="0.25"></line><line x1="21.53846153846154" y1="0" x2="21.53846153846154" y2="177" fill="rgb(0, 0, 0)" stroke="rgb(189, 189, 189)" stroke-width="1px" opacity="0.25"></line><line x1="43.07692307692308" y1="0" x2="43.07692307692308" y2="177" fill="rgb(0, 0, 0)" stroke="rgb(189, 189, 189)" stroke-width="1px" opacity="0.25"></line><line x1="64.61538461538461" y1="0" x2="64.61538461538461" y2="177" fill="rgb(0, 0, 0)" stroke="rgb(189, 189, 189)" stroke-width="1px" opacity="0.25"></line><line x1="86.15384615384616" y1="0" x2="86.15384615384616" y2="177" fill="rgb(0, 0, 0)" stroke="rgb(189, 189, 189)" stroke-width="1px" opacity="0.25"></line><line x1="107.6923076923077" y1="0" x2="107.6923076923077" y2="177" fill="rgb(0, 0, 0)" stroke="rgb(189, 189, 189)" stroke-width="1px" opacity="0.25"></line><line x1="129.23076923076923" y1="0" x2="129.23076923076923" y2="177" fill="rgb(0, 0, 0)" stroke="rgb(189, 189, 189)" stroke-width="1px" opacity="0.25"></line><line x1="150.76923076923077" y1="0" x2="150.76923076923077" y2="177" fill="rgb(0, 0, 0)" stroke="rgb(189, 189, 189)" stroke-width="1px" opacity="0.25"></line><line x1="172.30769230769232" y1="0" x2="172.30769230769232" y2="177" fill="rgb(0, 0, 0)" stroke="rgb(189, 189, 189)" stroke-width="1px" opacity="0.25"></line><line x1="193.84615384615384" y1="0" x2="193.84615384615384" y2="177" fill="rgb(0, 0, 0)" stroke="rgb(189, 189, 189)" stroke-width="1px" opacity="0.25"></line><line x1="215.3846153846154" y1="0" x2="215.3846153846154" y2="177" fill="rgb(0, 0, 0)" stroke="rgb(189, 189, 189)" stroke-width="1px" opacity="0.25"></line><line x1="236.92307692307693" y1="0" x2="236.92307692307693" y2="177" fill="rgb(0, 0, 0)" stroke="rgb(189, 189, 189)" stroke-width="1px" opacity="0.25"></line><line x1="258.46153846153845" y1="0" x2="258.46153846153845" y2="177" fill="rgb(0, 0, 0)" stroke="rgb(189, 189, 189)" stroke-width="1px" opacity="0.25"></line><line x1="280" y1="0" x2="280" y2="177" fill="rgb(0, 0, 0)" stroke="rgb(189, 189, 189)" stroke-width="1px" opacity="0.25"></line></g><g><line x1="0" y1="177" x2="280" y2="177" fill="rgb(0, 0, 0)" stroke="rgb(189, 189, 189)" stroke-width="1px" opacity="0.25"></line><line x1="0" y1="164.35714285714283" x2="280" y2="164.35714285714283" fill="rgb(0, 0, 0)" stroke="rgb(189, 189, 189)" stroke-width="1px" opacity="0.25"></line><line x1="0" y1="151.7142857142857" x2="280" y2="151.7142857142857" fill="rgb(0, 0, 0)" stroke="rgb(189, 189, 189)" stroke-width="1px" opacity="0.25"></line><line x1="0" y1="139.07142857142856" x2="280" y2="139.07142857142856" fill="rgb(0, 0, 0)" stroke="rgb(189, 189, 189)" stroke-width="1px" opacity="0.25"></line><line x1="0" y1="126.42857142857142" x2="280" y2="126.42857142857142" fill="rgb(0, 0, 0)" stroke="rgb(189, 189, 189)" stroke-width="1px" opacity="0.25"></line><line x1="0" y1="113.78571428571425" x2="280" y2="113.78571428571425" fill="rgb(0, 0, 0)" stroke="rgb(189, 189, 189)" stroke-width="1px" opacity="0.25"></line><line x1="0" y1="101.14285714285714" x2="280" y2="101.14285714285714" fill="rgb(0, 0, 0)" stroke="rgb(189, 189, 189)" stroke-width="1px" opacity="0.25"></line><line x1="0" y1="88.49999999999999" x2="280" y2="88.49999999999999" fill="rgb(0, 0, 0)" stroke="rgb(189, 189, 189)" stroke-width="1px" opacity="0.25"></line><line x1="0" y1="75.85714285714282" x2="280" y2="75.85714285714282" fill="rgb(0, 0, 0)" stroke="rgb(189, 189, 189)" stroke-width="1px" opacity="0.25"></line><line x1="0" y1="63.21428571428571" x2="280" y2="63.21428571428571" fill="rgb(0, 0, 0)" stroke="rgb(189, 189, 189)" stroke-width="1px" opacity="0.25"></line><line x1="0" y1="50.57142857142855" x2="280" y2="50.57142857142855" fill="rgb(0, 0, 0)" stroke="rgb(189, 189, 189)" stroke-width="1px" opacity="0.25"></line><line x1="0" y1="37.928571428571395" x2="280" y2="37.928571428571395" fill="rgb(0, 0, 0)" stroke="rgb(189, 189, 189)" stroke-width="1px" opacity="0.25"></line><line x1="0" y1="25.285714285714235" x2="280" y2="25.285714285714235" fill="rgb(0, 0, 0)" stroke="rgb(189, 189, 189)" stroke-width="1px" opacity="0.25"></line><line x1="0" y1="12.642857142857078" x2="280" y2="12.642857142857078" fill="rgb(0, 0, 0)" stroke="rgb(189, 189, 189)" stroke-width="1px" opacity="0.25"></line></g></g></g><g><g><line x1="0" y1="366.6428571428571" x2="280" y2="366.6428571428571" fill="rgb(0, 0, 0)" stroke="rgb(153, 153, 153)" stroke-width="1.5px"></line></g></g><g><g><line x1="21.53846153846154" y1="0" x2="21.53846153846154" y2="177" fill="rgb(0, 0, 0)" stroke="rgb(153, 153, 153)" stroke-width="1.5px"></line></g></g><g><g><g><g><g><path stroke="rgb(0, 119, 187)" stroke-width="2px" d="M31.230769230769234,-21.60487071368922L31.5,2.1543444649966954L31.76923076923077,-15.942351716632146L32.03846153846154,8.806301768934578L32.30769230769231,-5.8399799248249L32.57692307692308,17.999193565283253L32.84615384615385,0.6045145094934954L33.11538461538461,18.90549927796193L33.38461538461539,-0.09863461000913576L33.65384615384615,21.149376545893446L33.92307692307692,3.3910282597383907L34.19230769230769,23.536168415648987L34.46153846153847,2.1525298205302574L34.73076923076923,23.746264381546705L35,6.986056502696771L35.26923076923077,29.52202951544944L35.53846153846153,11.012523821799581L35.80769230769231,32.717822292603884L36.07692307692307,11.344059320234601L36.34615384615385,31.59227155650597L36.61538461538462,17.093835598232435L36.88461538461539,35.016266632181285L37.15384615384615,16.470041084530585L37.42307692307692,36.249283987838474L37.69230769230769,17.79782460325687L37.96153846153846,39.15735734611657L38.230769230769226,20.807008107603334L38.5,39.79469304219402L38.769230769230774,19.25610073404761L39.03846153846154,40.79174709172194L39.30769230769231,20.29395756361541L39.57692307692307,37.90502853421454L39.84615384615385,21.65102089093563L40.11538461538461,39.938890679113996L40.38461538461538,21.5839666055514L40.65384615384616,40.41624742118698L40.92307692307693,20.95442234880435L41.19230769230769,43.16182606112909L41.46153846153846,21.734884503694367L41.73076923076923,45.70790811186241L42,28.209399104451276L42.26923076923077,49.40830439707697L42.53846153846153,30.24678535146877L42.807692307692314,51.26578464033218L43.07692307692308,32.200557719244614L43.34615384615385,51.046161330346784L43.61538461538461,35.52693154136574L43.88461538461539,51.7602612210324L44.15384615384615,34.07535025912281L44.42307692307692,55.12513651950904L44.692307692307686,37.690181552113266L44.96153846153847,59.24335869092213L45.23076923076923,33.28525518155553L45.5,54.67005961463891L45.76923076923077,36.656050490970635L46.03846153846154,53.99105424059931L46.30769230769231,40.47463228550353L46.57692307692307,58.8159194868741L46.84615384615384,40.38994656928844L47.11538461538462,58.432099780160264L47.38461538461539,43.52175341557468L47.65384615384615,60.78583216681588L47.92307692307693,45.278304847937605L48.19230769230769,61.179642688739406L48.46153846153846,37.85592936035671L48.730769230769226,58.40245733726128L49,40.36261056934683L49.269230769230774,59.269944738218975L49.53846153846154,41.891024348090525L49.80769230769231,59.79732003429739L50.07692307692308,47.3068529160215L50.34615384615385,64.6736255283027L50.61538461538461,43.483118360954165L50.88461538461538,60.48942150633885L51.15384615384615,46.06525190041364L51.42307692307693,64.71705771099813L51.69230769230769,42.13979007459895L51.96153846153847,59.19983231909932L52.23076923076923,44.28764877216859L52.5,60.80433352059657L52.76923076923077,42.549610360774004L53.03846153846153,60.551760356303134L53.30769230769231,45.571480340531714L53.57692307692307,62.33711408579147L53.84615384615385,45.558479587227794L54.11538461538462,63.41399876336036L54.38461538461539,46.50848694346752L54.65384615384615,68.48521843971537L54.92307692307692,52.0067464214712L55.19230769230769,66.15782520221538L55.46153846153846,48.55183124067502L55.730769230769226,66.6557488982594L56,50.1891723316333L56.269230769230774,66.0691950081688L56.53846153846154,48.84757049721686L56.80769230769231,69.3703408038606L57.07692307692307,50.41384680863404L57.34615384615385,70.4842899541918L57.61538461538461,49.97750438061054L57.88461538461538,68.13764467965783L58.15384615384616,55.7238300776684L58.42307692307693,73.48063701593888L58.69230769230769,54.764079148346326L58.96153846153846,71.33476223956107L59.23076923076923,54.74152448730643L59.5,73.16257675681702L59.76923076923077,53.62463479934312L60.03846153846153,69.34856643522059L60.307692307692314,46.30014008023591L60.57692307692308,62.52811232341797L60.84615384615385,51.7419195032508L61.11538461538461,71.77431962285434L61.38461538461539,56.15517329971895L61.65384615384615,73.6739947396873L61.92307692307692,56.6129104874078L62.192307692307686,72.04261315772428L62.46153846153847,51.04716371509737L62.73076923076923,70.01744395561806L63,53.47274330227091L63.26923076923077,71.89469415350142L63.53846153846154,56.6686810849095L63.80769230769231,73.70551636884207L64.07692307692308,54.36241266101561L64.34615384615384,74.80628634326766L64.61538461538461,57.49346139582198L64.88461538461539,75.74341088262673L65.15384615384616,59.62122752449888L65.42307692307692,76.97783957239997L65.6923076923077,61.39262958449306L65.96153846153847,79.11560308885036L66.23076923076923,59.94212159050102L66.5,76.21048301682943L66.76923076923077,60.829316624667015L67.03846153846155,75.0996669403894L67.3076923076923,56.729372671732236L67.57692307692308,78.53307141070391L67.84615384615384,64.22981564593744L68.11538461538461,76.89713891829425L68.38461538461539,60.41778300932204L68.65384615384615,58.78986939120075L68.92307692307693,78.39882401204616L69.1923076923077,64.084490397471L69.46153846153847,85.21366211883054L69.73076923076923,71.0914266084294L70,87.24128411977205L70.26923076923077,63.52217161187783L70.53846153846153,80.51581053870608L70.8076923076923,63.780508286684835L71.07692307692307,81.12705061986452L71.34615384615384,65.34414067674912L71.61538461538461,84.76745365025275L71.88461538461537,68.06681891762837L72.15384615384615,84.69517102342034L72.42307692307693,73.6603533109123L72.6923076923077,92.03992482464268L72.96153846153847,70.52179544719661L73.23076923076924,88.04986369935473L73.5,71.38810645091488L73.76923076923077,89.46355813864945L74.03846153846153,71.19156025406126L74.3076923076923,88.24431827538902L74.57692307692308,78.49724244460134L74.84615384615384,94.61986548070982L75.11538461538461,78.66696158256319L75.38461538461539,94.42692470884698L75.65384615384615,75.84496804913414L75.92307692307692,89.99475932164842L76.19230769230768,69.61894986834636L76.46153846153845,85.43116047342114L76.73076923076924,63.325712248275906L77,83.7469258322184L77.26923076923077,71.39725618132017L77.53846153846155,91.77187542713986L77.8076923076923,73.73357357885853L78.07692307692308,89.65843163603247L78.34615384615385,71.60032047511955L78.61538461538461,90.59418392666491L78.88461538461539,71.85584441641191L79.15384615384615,90.55839037950213L79.42307692307692,74.77299429222246L79.6923076923077,92.79096571088985L79.96153846153845,77.64634737329034L80.23076923076923,93.62307829651881L80.5,75.9604601172669L80.76923076923076,92.62836694838256L81.03846153846155,74.38083946631245L81.30769230769232,91.14974386973749L81.57692307692308,77.37008289596581L81.84615384615385,92.73199336296946L82.11538461538461,73.73045377443677L82.38461538461539,88.68243626875321L82.65384615384616,73.05730444574185L82.92307692307692,91.88620181473866L83.1923076923077,75.12724652704674L83.46153846153847,92.5560110009506L83.73076923076923,77.72388244785084L84,92.62310721825475L84.26923076923076,76.58912957220574L84.53846153846153,93.611731680592L84.8076923076923,78.92245744824646L85.07692307692307,95.40253555447904L85.34615384615385,81.16424202998176L85.61538461538463,98.42232039889592L85.88461538461539,82.72035613825923L86.15384615384616,98.08685604980674L86.42307692307693,77.5592008979634L86.6923076923077,94.47628835536877L86.96153846153847,78.61531712201081L87.23076923076923,94.44882638012558L87.5,78.02441499152224L87.76923076923077,94.35538927473236L88.03846153846153,77.709456374876L88.3076923076923,93.61035202593192L88.57692307692307,78.08692233171246L88.84615384615384,95.29039505645576L89.11538461538461,79.43095675613155L89.38461538461537,97.22533636324708L89.65384615384615,83.43162415962188L89.92307692307693,98.20072744095367L90.1923076923077,78.15601332145454L90.46153846153847,94.48595408099337L90.73076923076924,78.2311239162878L91,93.15532733671519L91.26923076923077,76.40804578713978L91.53846153846153,96.23565013773874L91.8076923076923,81.31238096665595L92.07692307692308,97.69376273606933L92.34615384615384,83.40179451656685L92.61538461538461,97.59529375685557L92.88461538461539,76.01544854365429L93.15384615384615,94.72050130623694L93.42307692307692,78.97504175595647L93.69230769230768,93.34589086713727L93.96153846153845,77.09150183223129L94.23076923076924,93.63434488961478L94.5,76.8797594436301L94.76923076923077,91.7455234442217L95.03846153846155,78.56734842400824L95.3076923076923,96.12987895623561L95.57692307692308,78.80033203784626L95.84615384615385,95.59562397885095L96.11538461538461,77.19714316154028L96.38461538461539,93.20050145526335L96.65384615384615,74.67418526283585L96.92307692307692,94.08999252030029L97.1923076923077,76.95349633121651L97.46153846153845,95.2560129784052L97.73076923076923,79.85859411963428L98,97.8961623362816L98.26923076923076,79.01228393730459L98.53846153846155,94.76639983236058L98.80769230769232,77.17855105372253L99.07692307692308,94.32348533386715L99.34615384615385,80.44007375229323L99.61538461538461,97.2867019494062L99.88461538461539,80.3200053571269L100.15384615384616,96.34357465324217L100.42307692307692,81.6389295113903L100.6923076923077,95.21150222897245L100.96153846153847,82.16191788952464L101.23076923076923,99.24574722884542L101.5,83.75838596908154L101.76923076923076,100.92749620166883L102.03846153846153,89.62992549659216L102.3076923076923,105.11901251310374L102.57692307692307,85.87784935898993L102.84615384615385,100.14506641322305L103.11538461538463,82.5181973140098L103.38461538461539,97.9504151327224L103.65384615384616,81.77390691075647L103.92307692307693,98.29055500432133L104.1923076923077,84.5366604956331L104.46153846153847,102.32132997599551L104.73076923076923,89.27841886896313L105,105.93773367845324L105.26923076923077,93.48639862412853L105.53846153846153,108.10304644587211L105.8076923076923,91.61543949578832L106.07692307692307,106.90970908311708L106.34615384615384,85.2243356687159L106.61538461538461,101.74625373682879L106.88461538461537,87.94600669101368L107.15384615384615,104.27759277921452L107.42307692307693,87.36664671297386L107.6923076923077,103.94053174049353L107.96153846153847,84.69485580857014L108.23076923076924,99.5273838872545L108.5,82.08726099722533L108.76923076923077,99.90666735132608L109.03846153846153,86.39847538780089L109.3076923076923,101.33278138935727L109.57692307692308,87.94393735953867L109.84615384615384,106.02065099086184L110.11538461538461,89.5070175251969L110.38461538461539,105.45054301961555L110.65384615384615,90.78300363780211L110.92307692307692,109.66997427852725L111.19230769230768,89.89790713819139L111.46153846153845,102.72897038229976L111.73076923076924,86.11510384035188L112,100.9417261102819L112.26923076923077,84.91287993570924L112.53846153846155,101.5982337196842L112.8076923076923,87.80230076711771L113.07692307692308,103.10062513432025L113.34615384615385,92.12699784070857L113.61538461538461,107.23045614488265L113.88461538461539,90.8920773448165L114.15384615384615,106.34366054956472L114.42307692307692,92.26871181484688L114.6923076923077,107.82425649245171L114.96153846153845,88.30755092071023L115.23076923076923,103.99789938054276L115.5,87.62331739442976L115.76923076923076,90.35250937642601L116.03846153846155,107.56822023750898L116.30769230769232,96.59871878792092L116.57692307692308,111.17447631442516L116.84615384615385,97.30914932113348L117.11538461538461,112.21060495416349L117.38461538461539,96.26691538025106L117.65384615384616,113.70310521580399L117.92307692307692,100.11591155041214L118.1923076923077,116.9972287098143L118.46153846153847,102.53628378773885L118.73076923076923,116.87274169570615L119,102.1711953339405L119.26923076923076,117.25074051649217L119.53846153846153,100.80473160495748L119.8076923076923,117.99078659216875L120.07692307692307,101.83927407208193L120.34615384615385,115.98641784094829L120.61538461538463,101.24720215652263L120.88461538461539,118.05397428072875L121.15384615384616,100.49910523492007L121.42307692307693,116.02685419376166L121.6923076923077,100.36927272261696L121.96153846153847,114.91156133063704L122.23076923076923,101.52517451313162L122.5,113.75021181676406L122.76923076923077,101.41788510761408L123.03846153846153,116.9515222753482L123.3076923076923,102.5755732992465L123.57692307692307,116.84095983305686L123.84615384615384,100.9826223687828L124.11538461538461,115.64245374776641L124.38461538461537,102.07196111729489L124.65384615384615,117.74028192560468L124.92307692307693,101.46187111048943L125.1923076923077,117.96021060139034L125.46153846153847,104.4192369556775L125.73076923076924,119.30203146916857L126,105.25248471756845L126.26923076923077,119.93070234914109L126.53846153846153,102.24070415771166L126.8076923076923,117.77413555654246L127.07692307692308,102.34866778249571L127.34615384615384,120.92007692639618L127.61538461538461,105.90213387397598L127.88461538461539,120.79177894372451L128.15384615384616,104.11799528286677L128.4230769230769,119.93339685326616L128.69230769230768,107.14828847712629L128.96153846153845,118.89348642946929L129.23076923076923,104.48314307922585L129.5,118.26587108777957L129.76923076923077,99.73305425422416L130.03846153846155,116.79208744212464L130.30769230769232,102.75145914044985L130.57692307692307,118.96659488304347L130.84615384615384,101.44413581038343L131.1153846153846,115.93580984196637L131.3846153846154,102.78707892877829L131.65384615384616,118.38823460173698L131.92307692307693,105.26737523439343L132.19230769230768,117.80597153168601L132.46153846153845,103.57520383145898L132.73076923076923,121.10480547016623L133,107.83255771535957L133.26923076923077,123.28433139825805L133.53846153846155,109.52560617320269L133.80769230769232,123.70319797033095L134.0769230769231,109.5952005883491L134.34615384615384,124.50480151321833L134.6153846153846,104.00355672612008L134.8846153846154,119.22234494080939L135.15384615384616,106.25073463279361L135.42307692307693,120.41323115417897L135.69230769230768,104.18180046300296L135.96153846153845,120.73036900814535L136.23076923076923,103.68957896754075L136.5,118.5918781349483L136.76923076923077,102.83850003623913L137.03846153846155,119.88330017970591L137.3076923076923,110.96428190370527L137.57692307692307,125.76442460661944L137.84615384615387,108.77882635209757L138.1153846153846,124.0034189781082L138.3846153846154,102.17380438048188L138.65384615384616,117.05054238306889L138.92307692307693,103.2363593550771L139.1923076923077,116.87651455437283L139.46153846153845,100.5179957903521L139.73076923076923,116.78789841674254L140,98.25988736470244L140.26923076923077,115.1331247622489L140.53846153846155,102.94142739253991L140.8076923076923,118.20828343282912L141.07692307692307,103.9981979216342L141.34615384615384,120.6340592596807L141.6153846153846,106.9502492042626L141.8846153846154,122.62905687401086L142.15384615384613,108.97610417935478L142.4230769230769,124.52788465168656L142.69230769230768,111.07673637114942L142.96153846153845,124.23610521532336L143.23076923076923,107.77109739694214L143.5,121.06059258306882L143.76923076923075,107.3926166643688L144.03846153846152,121.52902215009556L144.3076923076923,103.3676431445841L144.5769230769231,117.41139846960645L144.84615384615387,103.43654461013655L145.11538461538464,119.17330598933547L145.3846153846154,102.54507312175356L145.65384615384616,118.4980598960343L145.92307692307693,104.04037490876702L146.1923076923077,121.7930134591549L146.46153846153848,105.13390945309261L146.73076923076923,119.55769833995842L147,104.47086996750329L147.26923076923077,119.8364120019777L147.53846153846155,104.93405736518046L147.80769230769232,119.97939040714782L148.07692307692307,103.92322747954861L148.34615384615384,118.56386661880809L148.6153846153846,105.4837355071308L148.8846153846154,121.41791858676513L149.15384615384616,103.92354750329433L149.42307692307693,121.11798156512268L149.69230769230768,106.2374568132984L149.96153846153845,122.05882296123951L150.23076923076923,107.33148343178425L150.5,124.12247410551657L150.76923076923077,105.89754773486416L151.03846153846152,122.74775403500884L151.3076923076923,105.01270577206957L151.57692307692307,121.96402203782765L151.84615384615384,108.64636168106463L152.1153846153846,125.66744706042432L152.38461538461536,113.4043876605996L152.65384615384613,126.313152804765L152.9230769230769,110.49473837427301L153.1923076923077,121.55800515996164L153.46153846153848,102.60697798003156L153.73076923076925,117.94072390282243L154,107.19772299220293L154.26923076923077,122.32132059378954L154.53846153846155,109.39998473900243L154.80769230769232,124.90491642894494L155.0769230769231,110.79679182330203L155.34615384615387,124.6948603480952L155.6153846153846,109.41503096681865L155.8846153846154,124.24688005950819L156.15384615384616,109.17043626029994L156.42307692307693,124.84770458969378L156.6923076923077,110.37173398503842L156.96153846153845,124.02610176311703L157.23076923076923,106.98359733598278L157.5,122.17530621112859L157.76923076923077,109.76360240113205L158.03846153846155,124.82916714687606L158.3076923076923,107.96740314458233L158.57692307692307,123.44278002626665L158.84615384615384,108.02144092313308L159.1153846153846,122.47457962796007L159.3846153846154,107.60087906117032L159.65384615384613,121.73355939707702L159.9230769230769,108.52520504031952L160.19230769230768,124.7360941228874L160.46153846153845,110.39623136807909L160.73076923076923,124.81691382263504L161,106.83238787542162L161.26923076923075,121.96583902850904L161.53846153846152,105.95488444749068L161.8076923076923,120.50526332030395L162.0769230769231,103.59799403143825L162.34615384615387,120.26332386289357L162.61538461538464,107.26051699880216L162.8846153846154,109.42526946986762L163.15384615384616,125.91128869246904L163.42307692307693,112.47424458860243L163.6923076923077,128.4768957311678L163.96153846153848,116.1829442822181L164.23076923076923,131.00135364734214L164.5,120.88279648618645L164.76923076923077,133.73716737000967L165.03846153846155,116.2569507981275L165.30769230769232,131.5409880283281L165.57692307692307,116.62400560060722L165.84615384615384,131.88520415494222L166.1153846153846,118.90959102123767L166.3846153846154,133.49874593356506L166.65384615384616,121.07278316648213L166.92307692307693,137.542942109017L167.19230769230768,124.14378206572746L167.46153846153845,137.88838413981335L167.73076923076923,124.7362068175068L168,137.94510824483385L168.26923076923077,123.16329936840677L168.53846153846152,134.82828285224076L168.8076923076923,117.2689150827134L169.07692307692307,131.61727640031668L169.34615384615384,118.39182264548509L169.6153846153846,132.26274479524727L169.88461538461536,119.78055231591073L170.15384615384613,131.14858568650206L170.4230769230769,118.10536968860404L170.6923076923077,133.1587950395103L170.96153846153848,116.84360711655039L171.23076923076925,132.92059913495282L171.5,123.96062118244592L171.76923076923077,138.0705677475554L172.03846153846155,120.15352421592708L172.30769230769232,136.32710578031453L172.5769230769231,121.46432665547847L172.84615384615387,135.52988948586764L173.1153846153846,118.56348344529505L173.3846153846154,134.10685978238226L173.65384615384616,119.04334641562313L173.92307692307693,130.97603289480992L174.1923076923077,115.80539808202005L174.46153846153845,131.45788965304408L174.73076923076923,118.1125963937759L175,133.54386100264543L175.26923076923077,122.0318024608579L175.53846153846155,135.5666544337682L175.8076923076923,123.90289486104291L176.07692307692307,136.70952989723372L176.34615384615384,125.58840938490073L176.6153846153846,140.20722593446015L176.8846153846154,126.19935069913646L177.15384615384613,140.32933934194116L177.4230769230769,122.84554140100695L177.69230769230768,136.1797182563472L177.96153846153845,121.13149007842311L178.23076923076923,138.4369764507357L178.5,126.64165431333502L178.76923076923075,141.53025104546595L179.03846153846152,129.00248823263345L179.3076923076923,140.97884877793754L179.5769230769231,125.90636292203193L179.84615384615387,139.63980609431434L180.11538461538464,125.65691521284917L180.3846153846154,140.81831819202282L180.65384615384616,128.0662985381063L180.92307692307693,141.70911185663127L181.1923076923077,126.97100255324534L181.46153846153848,141.37651770885628L181.73076923076923,128.66457123759915L182,141.51765666453576L182.26923076923077,123.22726647665363L182.53846153846155,134.8920977260633L182.80769230769232,120.97374860867713L183.07692307692307,134.34092675302594L183.34615384615384,121.12702675499139L183.6153846153846,133.47740855911042L183.8846153846154,119.7534976609442L184.15384615384616,135.45079694112428L184.42307692307693,117.2612110432466L184.69230769230768,131.54789592902276L184.96153846153845,119.51210316284826L185.23076923076923,132.65325389856417L185.5,120.1435318831946L185.76923076923077,134.4732536680405L186.03846153846152,120.68924564688926L186.3076923076923,134.03746972451515L186.57692307692307,115.9914773711583L186.84615384615384,131.92282421149693L187.1153846153846,113.52854680765834L187.38461538461536,129.244479079467L187.65384615384613,113.49722402276922L187.9230769230769,129.76306349166947L188.1923076923077,113.77301965373017L188.46153846153848,128.58034358906838L188.73076923076925,119.84363330422885L189,136.57226340643942L189.26923076923077,124.60623746991911L189.53846153846155,137.52506163962153L189.80769230769232,121.82847641817985L190.0769230769231,137.11077994691283L190.34615384615387,123.09005165481415L190.6153846153846,137.81661396416814L190.8846153846154,121.15143222593073L191.15384615384616,137.34035874619897L191.42307692307693,124.92992875689974L191.6923076923077,139.30115683306167L191.96153846153845,123.75506788350556L192.23076923076923,137.52684050940545L192.5,121.89311675372748L192.76923076923077,138.0348509376971L193.03846153846155,126.4590220338401L193.3076923076923,140.77728910990075L193.57692307692307,125.88418708640351L193.84615384615384,139.73585118229738L194.1153846153846,124.65911095809808L194.3846153846154,139.21093330559626L194.65384615384613,123.64496173199299L194.9230769230769,138.235255883596L195.19230769230768,125.34242029476528L195.46153846153845,136.3819354098962L195.73076923076923,123.10119094994505L196,136.2198798543815L196.26923076923075,123.46461686101674L196.53846153846152,139.05183455546677L196.8076923076923,123.06253970594618L197.0769230769231,138.24974743101694L197.34615384615387,124.79772593749804L197.61538461538464,138.48739389631035L197.8846153846154,123.00291673270883L198.15384615384616,135.774620836685L198.42307692307693,121.59126748300385L198.6923076923077,137.0347985552578L198.96153846153848,124.05333834986236L199.23076923076923,137.27238652700743L199.5,125.11576744960824L199.76923076923077,137.86947215151736L200.03846153846155,124.96129369493171L200.30769230769232,139.60439258108923L200.57692307692307,126.96872733778353L200.84615384615384,140.80576875405782L201.1153846153846,126.43797225461792L201.3846153846154,139.483519822864L201.65384615384616,124.36874625638073L201.92307692307693,139.18092691487882L202.19230769230768,123.87381427470585L202.46153846153845,137.84940913533728L202.73076923076923,129.90124051486757L203,144.276991905493L203.26923076923077,125.24509048598804L203.53846153846152,140.27392808478737L203.8076923076923,122.52307236554697L204.07692307692307,136.79410175032538L204.34615384615384,122.7987817680039L204.6153846153846,136.39516820523153L204.88461538461536,123.9335636239291L205.15384615384613,140.9188517552022L205.4230769230769,125.61815260364702L205.6923076923077,138.47366564540482L205.96153846153848,123.08043374615502L206.23076923076925,134.96427572509575L206.5,120.05799148416124L206.76923076923077,135.47946544181642L207.03846153846155,122.1516434625096L207.30769230769232,136.8003847999476L207.5769230769231,122.04523524184135L207.84615384615387,137.7899023164156L208.1153846153846,124.68270750110378L208.3846153846154,135.8794513172822L208.65384615384616,127.35177473668162L208.92307692307693,140.1513483366595L209.1923076923077,125.58571983846696L209.46153846153845,138.81436284503337L209.73076923076923,125.54020325353822L210,128.57516259077343L210.26923076923077,139.91634262812937L210.53846153846155,126.57350393390614L210.8076923076923,139.14944709544145L211.07692307692307,129.41148753187016L211.34615384615384,144.15068836160688L211.6153846153846,129.69547791031124L211.8846153846154,143.15152348533115L212.15384615384613,128.44100298334746L212.4230769230769,143.14672920981712L212.69230769230768,134.9482418249422L212.96153846153845,145.91245088012576L213.23076923076923,130.43481834130165L213.5,146.76464085454228L213.76923076923075,133.8727108509443L214.03846153846152,146.7082401635841L214.3076923076923,130.8059509255565L214.5769230769231,143.49625925741353L214.84615384615387,131.3465089552769L215.11538461538464,145.67342312588218L215.3846153846154,131.76073830176242L215.65384615384616,145.60023209389269L215.92307692307693,135.44447048511228L216.1923076923077,146.04393496575L216.46153846153848,130.74229098045745L216.73076923076923,144.01426008376328L217,131.29312163532342L217.26923076923077,146.14906976771806L217.53846153846155,132.83661134137105L217.80769230769232,147.58614690321252L218.07692307692307,134.2644168473686L218.34615384615384,145.9343196804959L218.6153846153846,132.03266901730885L218.8846153846154,146.15913393578728L219.15384615384616,132.42745074728853L219.42307692307693,146.50024546208618L219.69230769230768,135.51969773815753L219.96153846153845,147.67183121667227L220.23076923076923,135.42024957836404L220.5,149.58984402095155L220.76923076923077,139.55909103373588L221.03846153846152,153.7985582820453L221.3076923076923,141.2698483799542L221.57692307692307,152.79030822790824L221.84615384615384,134.59696128401313L222.1153846153846,146.693425585295L222.38461538461536,134.24559928703948L222.65384615384613,147.18355014080151L222.9230769230769,134.16991095041138L223.1923076923077,146.71842873018622L223.46153846153848,130.40952726966023L223.73076923076925,146.63062224074338L224,131.8690691970518L224.26923076923077,147.15347045721458L224.53846153846155,133.67806299037358L224.80769230769232,146.17323727612987L225.0769230769231,132.8053768313352L225.34615384615387,147.38416006684267L225.6153846153846,133.30632708287206L225.8846153846154,145.50920513835607L226.15384615384616,131.31329278459935L226.42307692307693,144.43313419753656L226.6923076923077,128.5686504563155L226.96153846153845,143.43849137162294L227.23076923076923,132.72893719632953L227.5,148.06893636960834L227.76923076923077,133.80357584045424L228.03846153846155,145.932290286737L228.3076923076923,131.18397669013584L228.57692307692307,144.53196669262215L228.84615384615384,131.79578653658112L229.1153846153846,147.2339143437065L229.3846153846154,131.97241828042465L229.65384615384613,145.99714758979408L229.9230769230769,131.311717191662L230.19230769230768,143.45837419944485L230.46153846153845,132.88391535738805L230.73076923076923,146.51141869348334L231,133.2908485230994L231.26923076923075,147.49439362265204L231.53846153846152,131.18201603752402L231.8076923076923,145.14989923759208L232.0769230769231,129.7362774131041L232.34615384615387,143.10830842848492L232.61538461538464,130.29021651349876L232.8846153846154,145.7133890820309L233.15384615384616,134.8269953943928L233.42307692307693,147.45902661111785L233.6923076923077,130.85029248837955L233.96153846153848,145.5545899821012L234.23076923076923,133.32188584939436L234.5,144.51022153042678L234.76923076923077,126.37989133522679L235.03846153846155,142.26905404440603L235.30769230769232,130.8451701852643L235.57692307692307,144.95627721486483L235.84615384615384,127.96309306180586L236.1153846153846,144.05397569133302L236.3846153846154,129.65603887149743L236.65384615384616,144.47276014488466L236.92307692307693,132.69663844768283L237.19230769230768,146.89259485074285L237.46153846153845,132.00278885810582L237.73076923076923,144.37787494437248L238,130.5473005282135L238.26923076923077,145.02141142914132L238.53846153846152,133.3378448457446L238.8076923076923,146.79870385722302L239.07692307692307,132.8379621151764L239.34615384615384,146.60108304342486L239.6153846153846,130.290364577936L239.88461538461536,143.5515781603504L240.15384615384613,133.0216919979679L240.4230769230769,145.47113748599907L240.6923076923077,133.39419575131365L240.96153846153848,144.42900132102625L241.23076923076925,130.15834474590844L241.5,144.43210300569532L241.76923076923077,133.3721096496963L242.03846153846155,148.039831692188L242.30769230769232,133.36308016998007L242.5769230769231,145.84539259286953L242.84615384615387,130.41909904103696L243.1153846153846,143.54077997434538L243.3846153846154,130.81319674639337L243.65384615384616,143.75491356936982L243.92307692307693,131.32586089187035L244.1923076923077,146.69361767075424L244.46153846153845,136.3191789466015L244.73076923076923,147.84362820239411L245,134.6726872573703L245.26923076923077,146.72872022166558L245.53846153846155,136.0564760025035L245.8076923076923,147.2794673904332L246.07692307692307,135.65000115748666L246.34615384615384,148.34500273456456L246.6153846153846,135.73121527970628L246.8846153846154,148.1318302347383L247.15384615384613,133.8286085581081L247.4230769230769,145.58567304908746L247.69230769230768,129.65503957867236L247.96153846153845,144.96503106610808L248.23076923076923,132.9766694281758L248.5,148.8234078663568L248.76923076923075,132.8520835444571L249.03846153846152,146.0434514044204L249.3076923076923,137.9104030221343L249.5769230769231,151.50610834902218L249.84615384615387,139.24624425010435L250.11538461538464,150.6657096134548L250.3846153846154,135.99478019201723L250.65384615384616,148.74725290589987L250.92307692307693,134.00487556789514L251.1923076923077,146.14389858545505L251.46153846153848,128.91319015827804L251.73076923076923,145.205981038666L252,130.14778626573582L252.26923076923077,144.79029963332982L252.53846153846155,130.20716692768963L252.80769230769232,144.98952101678395L253.07692307692307,132.8445445348254L253.34615384615384,146.593707791919L253.6153846153846,132.6233929783028L253.8846153846154,146.48000001855632L254.15384615384616,125.99607389102165L254.42307692307693,137.66343125276165L254.69230769230768,127.31238880583987L254.96153846153845,144.51955299752714L255.23076923076923,129.85149772024647L255.5,143.3016254755945L255.76923076923077,132.69529913858727L256.03846153846155,148.1937390094406L256.3076923076923,131.6782751072344L256.5769230769231,145.26876269575845L256.8461538461538,128.390080674862L257.1153846153846,130.5263484456001" style="fill: none;" fill="none"></path></g></g></g></g><g opacity="0.2"><g><g><g><path stroke="rgb(0, 119, 187)" stroke-width="2px" d="M25.307692307692307,-301.2792696782521L25.576923076923077,19.84927432026179L25.846153846153847,-246.85178089141846L26.115384615384617,12.326769437108704L26.384615384615383,-211.51500928401947L26.653846153846153,35.6528683560235L26.923076923076923,-178.39072803088595L27.192307692307693,65.04749071598052L27.46153846153846,-167.51787522860937L27.73076923076923,84.64393074171882L28,-129.20999131883897L28.26923076923077,66.37500376786501L28.538461538461537,-151.58786932059698L28.807692307692307,88.43677673169543L29.07692307692308,-108.98141657454632L29.346153846153847,74.02392052326883L29.615384615384617,-123.267842071397L29.884615384615383,100.1314197395529L30.153846153846157,-76.61571959086828L30.423076923076923,89.63785907200403L30.692307692307693,-88.24715666260043L30.96153846153846,70.04143788559095L31.230769230769234,-90.4596470168659L31.5,97.16036395515711L31.76923076923077,-88.31034375940054L32.03846153846154,107.78035533428192L32.30769230769231,-64.41537257603238L32.57692307692308,113.34321244699613L32.84615384615385,-68.96680283546452L33.11538461538461,92.10321084942133L33.38461538461539,-76.10999674456464L33.65384615384615,106.13679376244545L33.92307692307692,-67.63927094425479L34.19230769230769,104.113921216556L34.46153846153847,-83.37964020456592L34.73076923076923,110.11927640012331L35,-60.053578964301565L35.26923076923077,119.66463498984064L35.53846153846153,-63.024653588022524L35.80769230769231,119.53822311758995L36.07692307692307,-74.15036781345098L36.34615384615385,112.58464701686586L36.61538461538462,-40.89963700941633L36.88461538461539,106.70572254487445L37.15384615384615,-57.71463905913494L37.42307692307692,115.36606615356035L37.69230769230769,-56.007871551173125L37.96153846153846,124.5953573840005L38.230769230769226,-52.59429885659902L38.5,115.74535828828812L38.769230769230774,-62.898204037121396L39.03846153846154,126.9342784498419L39.30769230769231,-61.69715937546324L39.57692307692307,108.34928411671092L39.84615384615385,-43.364988786833635L40.11538461538461,113.0903510238443L40.38461538461538,-51.83571458714352L40.65384615384616,115.74535828828812L40.92307692307693,-56.8928676928793L41.19230769230769,131.99143155557766L41.46153846153846,-63.97287450517932L41.73076923076923,141.59999608142033L42,-41.78463315112255L42.26923076923077,134.20392190984316L42.53846153846153,-46.399288186005215L42.807692307692314,135.34177947470118L43.07692307692308,-44.06034828083859L43.34615384615385,126.42857444286346L43.61538461538461,-26.54998673711507L43.88461538461539,116.69357920544488L44.15384615384615,-36.66429294858663L44.42307692307692,139.32428095170428L44.692307692307686,-32.04963791370396L44.96153846153847,145.45606684684753L45.23076923076923,-70.54715847117565L45.5,140.2092770934105L45.76923076923077,-35.39998583282744L46.03846153846154,123.33106910756655L46.30769230769231,-13.591055452823678L46.57692307692307,132.18106820327893L46.84615384615384,-33.313945029463106L47.11538461538462,130.60071256756783L47.38461538461539,-16.119632005691567L47.65384615384615,129.84214713743754L47.92307692307693,-16.751804402896383L48.19230769230769,124.78499403170176L48.46153846153846,-55.438923929418856L48.730769230769226,140.58856922813823L49,-31.796776490552112L49.269230769230774,134.89928140384808L49.53846153846154,-27.624657205172994L49.80769230769231,131.42250277314866L50.07692307692308,-2.655015553746927L50.34615384615385,134.14071597371782L50.61538461538461,-41.27891030481886L50.88461538461538,128.514634085553L51.15384615384615,-11.63142652171002L51.42307692307693,139.32428095170428L51.69230769230769,-48.169280469417615L51.96153846153847,127.44000129614557L52.23076923076923,-15.361085414886514L52.5,126.87107251371656L52.76923076923077,-30.46928227799283L53.03846153846153,132.5603603380067L53.30769230769231,-14.349639722279173L53.57692307692307,129.39964906658443L53.84615384615385,-21.556058406829873L54.11538461538462,134.83607546772274L54.38461538461539,-21.113560335976764L54.65384615384615,156.3921444245747L54.92307692307692,-13.907141651426066L55.19230769230769,122.76214032513754L55.46153846153846,-21.87214460543226L55.730769230769226,139.07141952855244L56,-15.677133934838459L56.269230769230774,129.5892857142857L56.53846153846154,-20.038927546569326L56.80769230769231,151.46142203041484L57.07692307692307,-25.41212917225705L57.34615384615385,150.76606253640992L57.61538461538461,-32.04963791370396L57.88461538461538,140.7782058758395L58.15384615384616,6.068571669714763L58.42307692307693,144.50786476901598L58.69230769230769,-20.102152322019865L58.96153846153846,137.61749460441723L59.23076923076923,-11.63142652171002L59.5,146.84678583485737L59.76923076923077,-24.527133030550832L60.03846153846153,132.2442929787295L60.307692307692314,-45.893565339701524L60.57692307692308,127.44000129614557L60.84615384615385,8.597148222582653L61.11538461538461,151.90392010126794L61.38461538461539,-6.321411992822397L61.65384615384615,143.74928049956048L61.92307692307692,-11.63142652171002L62.192307692307686,133.76142383899005L62.46153846153847,-32.934634055410136L62.73076923076923,145.8985649177006L63,-12.706059311117462L63.26923076923077,145.58249755842343L63.53846153846154,-4.235371189458058L63.80769230769231,141.85285750457217L64.07692307692308,-23.01000217029028L64.34615384615384,156.58178107227596L64.61538461538461,-11.757838393960704L64.88461538461539,148.74320882984568L65.15384615384616,-4.867505908012429L65.42307692307692,146.4042877640043L65.6923076923077,-0.9482103671346729L65.96153846153847,150.00749710627963L66.23076923076923,-16.751804402896383L66.5,141.28392872214317L66.76923076923077,-0.695348943982828L67.03846153846155,132.18106820327893L67.3076923076923,-16.751804402896383L67.57692307692308,165.74786636659076L67.84615384615384,7.016792586871523L68.11538461538461,127.56643200772149L68.38461538461539,-5.499640626566762L68.65384615384615,52.278214918715605L68.92307692307693,156.8346424954278L69.1923076923077,6.827155939170259L69.46153846153847,169.73034900426865L69.73076923076923,14.60248456682475L70,151.8407141651426L70.26923076923077,-31.354278419699003L70.53846153846153,148.49036624601908L70.8076923076923,-3.160700721400136L71.07692307692307,150.5132199525833L71.34615384615384,2.2125009042875883L71.61538461538461,162.46070554426737L71.88461538461537,1.2642799871308295L72.15384615384615,151.20857944658823L72.42307692307693,29.52108246088026L72.6923076923077,165.55821087956429L72.96153846153847,-15.550722062587777L73.23076923076924,158.1621367079871L73.5,4.741077457155478L73.76923076923077,161.76536488958766L74.03846153846153,-1.8964312842914317L74.3076923076923,156.45535036070004L74.57692307692308,39.50893912145067L74.84615384615384,159.11035762514385L75.11538461538461,14.855345989976593L75.38461538461539,157.46677721398217L75.65384615384615,1.5171414102826546L75.92307692307692,146.59392441170556L76.19230769230768,-11.884287944861866L76.46153846153845,148.68000289372034L76.73076923076924,-25.096080652305105L77,165.43178016798836L77.26923076923077,21.998577577727154L77.53846153846155,173.27035241041864L77.8076923076923,1.5803661857332165L78.07692307692308,153.35786386472836L78.34615384615385,-0.6321241685322465L78.61538461538461,166.5696377328464L78.88461538461539,-3.0975136246000354L79.15384615384615,165.36857423186302L79.42307692307692,11.63140994310377L79.6923076923077,164.86285138555934L79.96153846153845,17.067874022892518L80.23076923076923,157.53000198943272L80.5,5.309987400259268L80.76923076923076,159.2999942728451L81.03846153846155,1.390729538031953L81.30769230769232,158.22536148343767L81.57692307692308,22.251439000879L81.84615384615385,154.179635230984L82.11538461538461,-2.275704579693959L82.38461538461539,148.49036624601908L82.65384615384616,10.55677715369631L82.92307692307692,167.20179129072596L83.1923076923077,8.091425376278982L83.46153846153847,162.2710688965661L83.73076923076923,18.395368235451805L84,152.22000629987033L84.26923076923076,12.453218988009828L84.53846153846153,161.70214011413708L84.8076923076923,20.165360518864198L85.07692307692307,161.32284797940935L85.34615384615385,24.211067931992638L85.61538461538463,167.45463387455257L85.88461538461539,19.912499095712374L86.15384615384616,159.55285569599695L86.42307692307693,-4.551419709410003L86.6923076923077,162.14463818499019L86.96153846153847,15.171432188579L87.23076923076923,157.78286341258456L87.5,12.326769437108704L87.76923076923077,159.67928640757287L88.03846153846153,11.125724775450543L88.3076923076923,157.21393463015556L88.57692307692307,15.993203554834615L88.84615384615384,164.10428595542908L89.11538461538461,15.993203554834615L89.38461538461537,168.40285479170933L89.65384615384615,28.256775345121095L89.92307692307693,157.2771405662809L90.1923076923077,-2.0228431565421134L90.46153846153847,159.8057171191488L90.73076923076924,13.211803257465343L91,152.8521410184247L91.26923076923077,9.418919588838287L91.53846153846153,175.5460675401347L91.8076923076923,21.619304282324627L92.07692307692308,163.21928981372287L92.34615384615384,26.233921638556875L92.61538461538461,154.3692907180105L92.88461538461539,-10.303932309150735L93.15384615384615,169.54071235656738L93.42307692307692,15.993203554834615L93.69230769230768,150.82928731186047L93.96153846153845,12.073945692607301L94.23076923076924,159.8057171191488L94.5,9.861417659691377L94.76923076923077,151.20857944658823L95.03846153846155,25.85464834315435L95.3076923076923,166.38000108514512L95.57692307692308,9.48214436428885L95.84615384615385,162.77679174286976L96.11538461538461,3.6032198922974557L96.38461538461539,157.21393463015556L96.65384615384615,0.5689204931258959L96.92307692307692,171.7532215501581L97.1923076923077,8.40751157488139L97.46153846153845,168.4660795671599L97.73076923076923,18.26891868455068L98,170.04643520287104L98.26923076923076,3.4767703413963122L98.53846153846155,157.78286341258456L98.80769230769232,6.827155939170259L99.07692307692308,162.90322245444568L99.34615384615385,24.90642742599757L99.61538461538461,164.67321473785807L99.88461538461539,12.453218988009828L100.15384615384616,160.43785183770314L100.42307692307692,22.82034894398279L100.6923076923077,149.50179309930118L100.96153846153847,29.96358053173335L101.23076923076923,167.5810645861285L101.5,21.80894093002589L101.76923076923076,169.60393713201793L102.03846153846153,44.43964267628531L102.3076923076923,167.07536057915004L102.57692307692307,8.913196742534618L102.84615384615385,157.21393463015556L103.11538461538463,12.010720917156739L103.38461538461539,159.67928640757287L103.65384615384616,17.067874022892518L103.92307692307693,164.3571473785809L104.1923076923077,29.52108246088026L104.46153846153847,173.4600078974451L104.73076923076923,37.10677444083348L105,172.5749929164137L105.26923076923077,43.68105840682981L105.53846153846153,166.5696377328464L105.8076923076923,25.665011695453085L106.07692307692307,168.08678743243217L106.34615384615384,-1.5171579888889049L106.61538461538461,167.83392600928033L106.88461538461537,32.74501850775308L107.15384615384615,169.60393713201793L107.42307692307693,19.72286244801111L107.6923076923077,170.2360718505723L107.96153846153847,7.712152080876455L108.23076923076924,158.85749620199203L108.5,12.326769437108704L108.76923076923077,171.18429276772906L109.03846153846153,32.365707533700096L109.3076923076923,161.07000539558274L109.57692307692308,34.38856124026433L109.84615384615384,178.32750551615442L110.11538461538461,23.45248366253714L110.38461538461539,169.2246449972902L110.65384615384615,32.11284611054827L110.92307692307692,185.21785684142793L111.19230769230768,10.809638576848135L111.46153846153845,154.0532233587333L111.73076923076924,19.659637672560528L112,160.24821519000187L112.26923076923077,20.79749523741857L112.53846153846155,168.339648855584L112.8076923076923,32.61856895685194L113.07692307692308,164.29392260313034L113.34615384615385,48.23248866626192L113.61538461538461,167.64428936157907L113.88461538461539,25.538562144551943L114.15384615384615,168.14999336855752L114.42307692307692,35.968916875975445L114.6923076923077,170.04643520287104L114.96153846153845,10.240728633744345L115.23076923076923,166.75929321987286L115.5,22.124989449977853L115.76923076923076,101.26927730441092L116.03846153846155,176.4310636818409L116.30769230769232,52.72071298956869L116.57692307692308,169.477506420442L116.84615384615385,41.847841347966856L117.11538461538461,171.81642748628343L117.38461538461539,32.49215708460124L117.65384615384616,183.44786455801554L117.92307692307692,45.76713688884462L118.1923076923077,184.522497347423L118.46153846153847,44.69250409943715L118.73076923076923,174.2185733275754L119,43.36500988687785L119.26923076923076,177.56892124669892L119.53846153846153,35.020695958818685L119.8076923076923,186.73500654101372L120.07692307692307,37.23322399173461L120.34615384615385,172.5749929164137L120.61538461538463,42.29033941881995L120.88461538461539,185.28106277755327L121.15384615384616,30.279629051685312L121.42307692307693,178.13785002912795L121.6923076923077,37.73894683803828L121.96153846153847,173.08071576271738L122.23076923076923,47.979627243110095L122.5,162.65036103129387L122.76923076923077,52.08857827101434L123.03846153846153,179.0860709462847L123.3076923076923,45.07177739483968L123.57692307692307,173.90250596829821L123.84615384615384,37.549272511686574L124.11538461538461,174.28177926370074L124.38461538461537,47.78999059540883L124.65384615384615,180.413565158844L124.92307692307693,36.34822785002843L125.1923076923077,183.953568564994L125.46153846153847,50.25534237282614L125.73076923076924,178.83320952313287L126,49.054297711168L126.26923076923077,178.6435728754316L126.53846153846153,31.480711391993918L126.8076923076923,179.90786115186555L127.07692307692308,40.6467966863087L127.34615384615384,195.20571350199836L127.61538461538461,45.830361664295175L127.88461538461539,180.35035922271865L128.15384615384616,37.422860639435875L128.4230769230769,183.19500313486373L128.69230769230768,56.007854972566854L128.96153846153845,165.87427823884144L129.23076923076923,46.84176967825206L129.5,173.39678312199456L129.76923076923077,25.601786920002503L130.03846153846155,185.02822019372667L130.30769230769232,46.58894593375067L130.57692307692307,183.82713785341807L130.84615384615384,31.354299519743215L131.1153846153846,173.90250596829821L131.3846153846154,50.19215527602602L131.65384615384616,180.79285729357173L131.92307692307693,52.78393776501925L132.19230769230768,167.96035672085625L132.46153846153845,46.65213303055079L132.73076923076923,191.22321202499526L133,54.74356669613291L133.26923076923077,185.091426129852L133.53846153846155,54.49070527298108L133.80769230769232,180.413565158844L134.0769230769231,53.16321106042178L134.34615384615384,184.14320521269525L134.6153846153846,21.998577577727154L134.8846153846154,180.0974977995668L135.15384615384616,54.36429340073038L135.42307692307693,177.06321723972047L135.69230769230768,39.256077698298846L135.96153846153845,186.92464318871498L136.23076923076923,35.526418805122354L136.5,178.2010748045785L136.76923076923077,39.824987641402636L137.03846153846155,188.062500753573L137.3076923076923,75.28820879970277L137.57692307692307,184.9649954182761L137.84615384615387,40.83643333400996L138.1153846153846,184.90178948215075L138.3846153846154,14.855345989976593L138.65384615384616,176.5574943934168L138.92307692307693,47.979627243110095L139.1923076923077,171.43713535155567L139.46153846153845,35.08392073426925L139.73076923076923,181.8675089223044L140,24.147843156542073L140.26923076923077,182.6260743524347L140.53846153846155,54.1746379137039L140.8076923076923,179.27570759398597L141.07692307692307,47.15785587685446L141.34615384615384,187.17750461186682L141.6153846153846,52.21500898259024L141.8846153846154,185.34428755300385L142.15384615384613,54.36429340073038L142.4230769230769,186.73500654101372L142.69230769230768,57.2721432490008L142.96153846153845,176.8735805920192L143.23076923076923,41.91106612341742L143.5,174.2185733275754L143.76923076923075,52.72071298956869L144.03846153846152,178.07464409300258L144.3076923076923,30.722127122538403L144.5769230769231,173.58641976969582L144.84615384615387,47.53712917225699L145.11538461538464,182.12035150613104L145.3846153846154,36.03214165142602L145.65384615384616,182.31000699315751L145.92307692307693,46.2096349596977L146.1923076923077,192.8035676607064L146.46153846153848,38.497493428843335L146.73076923076923,177.25285388742174L147,44.123556477682904L147.26923076923077,181.2985801398754L147.53846153846155,45.324638817991506L147.80769230769232,180.1607225750174L148.07692307692307,39.69857576915194L148.34615384615384,177.12642317584582L148.6153846153846,53.16321106042178L148.8846153846154,185.1546509053026L149.15384615384616,33.946063169411225L149.42307692307693,189.89571781243598L149.69230769230768,46.71535780600137L149.96153846153845,185.34428755300385L150.23076923076923,48.422125313963186L150.5,191.2864368004458L150.76923076923077,32.997842252254465L151.03846153846152,190.1485792355878L151.3076923076923,34.07251272031237L151.57692307692307,189.76928710086005L151.84615384615384,55.3757202540125L152.1153846153846,193.75178857786315L152.38461538461536,64.3521500613008L152.65384615384613,177.94821338142668L152.9230769230769,47.22108065230504L153.1923076923077,165.8110723027161L153.46153846153848,26.802869260311105L153.73076923076925,179.27570759398597L154,64.2257193497249L154.26923076923077,182.81571100013596L154.53846153846155,57.71464131985391L154.80769230769232,186.92464318871498L155.0769230769231,54.36429340073038L155.34615384615387,180.28713444726807L155.6153846153846,48.29571344171251L155.8846153846154,183.57427643026625L156.15384615384616,48.864661063466734L156.42307692307693,187.55677790726935L156.6923076923077,52.46785156641687L156.96153846153845,178.6435728754316L157.23076923076923,38.81357962744574L157.5,182.94214171171188L157.76923076923077,60.11678716114587L158.03846153846155,185.091426129852L158.3076923076923,40.520347135407555L158.57692307692307,185.34428755300385L158.84615384615384,46.336084510598845L159.1153846153846,180.28713444726807L159.3846153846154,48.106076794011244L159.65384615384613,178.26428074070384L159.9230769230769,55.69178761328967L160.19230769230768,189.5796504531588L160.46153846153845,53.03678034884587L160.73076923076923,182.49964364085878L161,34.894284086567986L161.26923076923075,182.49964364085878L161.53846153846152,41.91106612341742L161.8076923076923,178.70677881155694L162.0769230769231,35.968916875975445L162.34615384615387,186.92464318871498L162.61538461538464,55.24928954243658L162.8846153846154,118.0842793541295L163.15384615384616,191.85536558287484L163.42307692307693,58.72606817313601L163.6923076923077,192.4875003014292L163.96153846153848,67.0071384864194L164.23076923076923,190.2749911078385L164.5,80.4085678415639L164.76923076923077,185.1546509053026L165.03846153846155,46.336084510598845L165.30769230769232,192.67713694913047L165.57692307692307,56.956075889723614L165.84615384615384,192.92999837228228L166.1153846153846,67.0071384864194L166.3846153846154,191.85536558287484L166.65384615384616,71.36893209815024L166.92307692307693,203.42357787915637L167.19230769230768,70.5471418925694L167.46153846153845,192.86679243615694L167.73076923076923,72.12749752828051L168,190.78071395414216L168.26923076923077,64.03606386269838L168.53846153846152,181.48821678757668L168.8076923076923,47.03144400460378L169.07692307692307,189.01072167072977L169.34615384615384,65.49000762615884L169.6153846153846,187.74643339429582L169.88461538461536,69.85178239856447L170.15384615384613,176.62071916886737L170.4230769230769,65.93250569701193L170.6923076923077,193.3724964431354L170.96153846153848,51.582855424710665L171.23076923076925,197.22856720856257L171.5,88.12070937241826L171.76923076923077,194.5103540079934L172.03846153846155,48.48535008941377L172.30769230769232,201.0214320378644L172.5769230769231,62.01321015613417L172.84615384615387,191.79214080742426L173.1153846153846,50.69785928300447L173.3846153846154,196.28036513073104L173.65384615384616,58.78929294858659L173.92307692307693,178.70677881155694L174.1923076923077,55.12285883086066L174.46153846153845,194.06785593714034L174.73076923076923,64.73142335670333L175,195.2689194381237L175.26923076923077,75.9835682937077L175.53846153846155,189.70606232540948L175.8076923076923,77.24785657014165L176.07692307692307,187.93607004199708L176.34615384615384,81.10392733556883L176.6153846153846,198.68249213269777L176.8846153846154,70.16784975784164L177.15384615384613,196.84929391316004L177.4230769230769,52.91034963726995L177.69230769230768,189.5164256777082L177.96153846153845,60.93857736672671L178.23076923076923,207.6589219399861L178.5,79.46036576373236L178.76923076923075,201.08463797398974L179.03846153846152,78.89143698130334L179.3076923076923,188.88429095915384L179.5769230769231,65.61641949840953L179.84615384615387,194.573578783444L180.11538461538464,69.72535168698855L180.3846153846154,201.4639301087175L180.65384615384616,77.05821992244039L180.92307692307693,196.28036513073104L181.1923076923077,68.01856533970148L181.46153846153848,198.9985783313002L181.73076923076923,77.81678535257066L182,192.92999837228228L182.26923076923077,50.06570572512488L182.53846153846155,181.55142272370202L182.80769230769232,65.30035213913233L183.07692307692307,187.80963933042116L183.34615384615384,68.27142676285334L183.6153846153846,182.87893577558654L183.8846153846154,64.85785406827925L184.15384615384616,198.2399940618447L184.42307692307693,44.50286745173589L184.69230769230768,188.69463547212737L184.96153846153845,71.36893209815024L185.23076923076923,185.21785684142793L185.5,70.1046438217163L185.76923076923077,191.79214080742426L186.03846153846152,65.55321356228418L186.3076923076923,187.43036603501864L186.57692307692307,43.807507957730955L186.84615384615384,195.64821157285144L187.1153846153846,39.951437192303764L187.38461538461536,192.10820816670144L187.65384615384613,50.508203795977984L187.9230769230769,194.8264213672706L188.1923076923077,49.81284430197305L188.46153846153848,187.80963933042116L188.73076923076925,84.89679216487066L189,203.48678381528174L189.26923076923077,76.74213372383798L189.53846153846155,189.20035831843103L189.80769230769232,59.04213553241319L190.0769230769231,198.2399940618447L190.34615384615387,67.0071384864194L190.6153846153846,196.72286320158412L190.8846153846154,54.49070527298108L191.15384615384616,202.09606482727187L191.42307692307693,75.28820879970277L191.6923076923077,196.7860691377095L191.96153846153845,61.57071208528108L192.23076923076923,192.61393101300513L192.5,59.3582217310156L192.76923076923077,202.60178767357553L193.03846153846155,80.15570641841207L193.3076923076923,198.05035741414343L193.57692307692307,66.31177899241446L193.84615384615384,195.14250756587302L194.1153846153846,64.3521500613008L194.3846153846154,197.41822269558907L194.65384615384613,61.38107543757982L194.9230769230769,196.59643249000823L195.19230769230768,73.77107793944221L195.46153846153845,180.53999587041992L195.73076923076923,69.97821311014037L196,188.69463547212737L196.26923076923075,72.4435648875577L196.53846153846152,201.40070533326693L196.8076923076923,59.105360307863755L197.0769230769231,198.9985783313002L197.34615384615387,70.98963996342249L197.61538461538464,193.24606573155947L197.8846153846154,61.06500807830263L198.15384615384616,186.86143725258964L198.42307692307693,64.85785406827925L198.6923076923077,198.8089228442737L198.96153846153848,72.12749752828051L199.23076923076923,190.1485792355878L199.5,76.48929114001136L199.76923076923077,188.88429095915384L200.03846153846155,73.32857986858912L200.30769230769232,198.17678812571933L200.57692307692307,76.4260663645608L200.84615384615384,196.15393441915512L201.1153846153846,68.96678625685827L201.3846153846154,191.66571009584834L201.65384615384616,63.909651990447706L201.92307692307693,198.42964954887117L202.19230769230768,62.64536371401376L202.46153846153845,193.75178857786315L202.73076923076923,98.10856603298868L203,201.7799974679947L203.26923076923077,49.11748480796812L203.53846153846152,200.38927847998482L203.8076923076923,51.51964948858531L204.07692307692307,193.87821928943907L204.34615384615384,66.81750183871813L204.6153846153846,190.78071395414216L204.88461538461536,74.08714529871939L205.15384615384613,208.86000428029467L205.4230769230769,64.41535599742616L205.6923076923077,189.89571781243598L205.96153846153848,61.507506149155745L206.23076923076925,182.49964364085878L206.5,60.432854520423064L206.76923076923077,197.16536127243722L207.03846153846155,68.84035554528235L207.30769230769232,195.39535014969962L207.5769230769231,63.02463700941629L207.84615384615387,200.7685706147126L208.1153846153846,72.25392823985644L208.3846153846154,180.66642658199584L208.65384615384616,93.24106841427938L208.92307692307693,191.34964273657118L209.1923076923077,67.32320584569658L209.46153846153845,191.72893487129892L209.73076923076923,72.4435648875577L210,140.71499993971415L210.26923076923077,185.28106277755327L210.53846153846155,73.2021491570132L210.8076923076923,189.45321974158287L211.07692307692307,90.45964927758486L211.34615384615384,203.10749168055398L211.6153846153846,71.87463610512869L211.8846153846154,196.97570578541075L212.15384615384613,69.59892097541263L212.4230769230769,201.96963411569595L212.69230769230768,102.15429228544235L212.96153846153845,189.76928710086005L213.23076923076923,68.52428818600517L213.5,212.0839309075049L213.76923076923075,82.3049908365522L214.03846153846152,198.05035741414343L214.3076923076923,67.19679397344588L214.5769230769231,194.2574925848416L214.84615384615387,82.74750774673052L215.11538461538464,202.9810798083033L215.3846153846154,76.10999900528361L215.65384615384616,200.95820726241385L215.92307692307693,94.82142404999048L216.1923076923077,188.44179288830077L216.46153846153848,69.53571503928728L216.73076923076923,197.10213649698665L217,80.4085678415639L217.26923076923077,205.57286229729652L217.53846153846155,79.58677763598304L217.80769230769232,206.58428915057863L218.07692307692307,80.9774966239929L218.34615384615384,192.61393101300513L218.6153846153846,76.4260663645608L218.8846153846154,202.66499360970087L219.15384615384616,77.50071799329348L219.42307692307693,202.7914243212768L219.69230769230768,91.59750684244291L219.96153846153845,196.28036513073104L220.23076923076923,86.41392302513121L220.5,206.26822179130144L220.76923076923077,99.43607908487319L221.03846153846152,210.756427275283L221.3076923076923,91.15500877158982L221.57692307692307,198.87214761972427L221.84615384615384,61.82357350843291L222.1153846153846,195.07928279042244L222.38461538461536,84.45429409401756L222.65384615384613,198.93535355584962L222.9230769230769,82.11535418885093L223.1923076923077,196.91249984928538L223.46153846153848,65.17392142755644L223.73076923076925,211.51500212507588L224,72.82285702228545L224.26923076923077,208.29107549786568L224.53846153846155,79.77643312300954L224.80769230769232,196.15393441915512L225.0769230769231,79.33393505215643L225.34615384615387,205.69929300887244L225.6153846153846,76.99499514698981L225.8846153846154,194.32071736029215L226.15384615384616,74.5296433695725L226.42307692307693,196.91249984928538L226.6923076923077,65.11071549143107L226.96153846153845,202.9178550328527L227.23076923076923,89.89072049515588L227.5,209.4289330627237L227.76923076923077,76.74213372383798L228.03846153846155,194.44714807186807L228.3076923076923,72.19072230373109L228.57692307692307,197.9239267025675L228.84615384615384,80.85106591241698L229.1153846153846,208.986425572208L229.3846153846154,70.92643402729715L229.65384615384613,202.09606482727187L229.9230769230769,72.56999559913362L230.19230769230768,192.0450022305761L230.46153846153845,90.5860799891608L230.73076923076923,201.0214320378644L231,80.4085678415639L231.26923076923075,204.30857402086258L231.53846153846152,65.93250569701193L231.8076923076923,201.0214320378644L232.0769230769231,68.08179011515207L232.34615384615387,196.59643249000823L232.61538461538464,79.01784885355403L232.8846153846154,207.40607935615947L233.15384615384616,91.2814206438405L233.42307692307693,197.98715147801806L233.6923076923077,64.41535599742616L233.96153846153848,204.37177995698792L234.23076923076923,84.39106931856699L234.5,189.26356425455637L234.76923076923077,53.85857055442671L235.03846153846155,205.82570488112313L235.30769230769232,85.14963474869727L235.57692307692307,201.40070533326693L235.84615384615384,59.99035644956995L236.1153846153846,208.4175062094416L236.3846153846154,72.06429159215517L236.65384615384616,203.73964523843355L236.92307692307693,85.5921516588756L237.19230769230768,203.676420462983L237.46153846153845,72.4435648875577L237.73076923076923,193.87821928943907L238,75.22500286357742L238.26923076923077,202.9178550328527L238.53846153846152,86.6035785121577L238.8076923076923,200.64213990313667L239.07692307692307,76.99499514698981L239.34615384615384,201.65356675641877L239.6153846153846,65.04749071598052L239.88461538461536,196.59643249000823L240.15384615384613,90.90214734843798L240.4230769230769,195.2689194381237L240.6923076923077,85.08642881257192L240.96153846153848,188.56822359987666L241.23076923076925,73.07571844543729L241.5,201.52713604484285L241.76923076923077,89.13213622570036L242.03846153846155,206.71071986215455L242.30769230769232,74.6560740811484L242.5769230769231,195.77464228442736L242.84615384615387,68.71392483370643L243.1153846153846,196.0275037075792L243.3846153846154,79.90286383458545L243.65384615384616,195.52178086127554L243.92307692307693,81.6096501818725L244.1923076923077,208.16464478628976L244.46153846153845,94.82142404999048L244.73076923076923,193.94142522556442L245,81.98892347727502L245.26923076923077,194.95285207884652L245.53846153846155,93.36749912585528L245.8076923076923,192.17143294215202L246.07692307692307,89.13213622570036L246.34615384615384,199.12500904287612L246.6153846153846,85.27606546027319L246.8846153846154,197.73429005486625L247.15384615384613,76.61572185158728L247.4230769230769,192.61393101300513L247.69230769230768,65.93250569701193L247.96153846153845,206.2049970158509L248.23076923076923,85.02322287644658L248.5,212.2103616190808L248.76923076923075,68.96678625685827L249.03846153846152,198.8089228442737L249.3076923076923,105.37820949298994L249.5769230769231,205.8889296565737L249.84615384615387,90.20678785443305L250.11538461538464,196.34357106685638L250.3846153846154,77.31106250626699L250.65384615384616,199.75714376143046L250.92307692307693,75.03536621587615L251.1923076923077,194.69999065569468L251.46153846153848,59.99035644956995L251.73076923076923,210.37714456021786L252,69.91500717401503L252.26923076923077,203.36035310370582L252.53846153846155,71.87463610512869L252.80769230769232,204.11893737316132L253.07692307692307,84.26463860699107L253.34615384615384,201.59036082029343L253.6153846153846,76.74213372383798L253.8846153846154,201.9064281795706L254.15384615384616,44.06036938088278L254.42307692307693,184.33286069972175L254.69230769230768,85.90821901815276L254.96153846153845,213.34820976427622L255.23076923076923,71.17927661112375L255.5,197.10213649698665L255.76923076923077,90.2699937905584L256.03846153846155,210.187498492854L256.3076923076923,65.61641949840953L256.5769230769231,199.63071304985453L256.8461538461538,60.87535259127615L257.1153846153846,139.07141952855244" style="fill: none;" fill="none"></path></g></g></g></g></g></g><g transform="translate(50, 177)" clip-path="url(#clip_1)"><clipPath id="clip_1"><rect width="280" height="23"></rect></clipPath><g><g><line x1="0" y1="0" x2="0" y2="5" style="visibility: inherit;" fill="rgb(0, 0, 0)" stroke="rgb(204, 204, 204)" stroke-width="1px"></line><line x1="21.53846153846154" y1="0" x2="21.53846153846154" y2="5" style="visibility: inherit;" fill="rgb(0, 0, 0)" stroke="rgb(204, 204, 204)" stroke-width="1px"></line><line x1="43.07692307692308" y1="0" x2="43.07692307692308" y2="5" style="visibility: inherit;" fill="rgb(0, 0, 0)" stroke="rgb(204, 204, 204)" stroke-width="1px"></line><line x1="64.61538461538461" y1="0" x2="64.61538461538461" y2="5" style="visibility: inherit;" fill="rgb(0, 0, 0)" stroke="rgb(204, 204, 204)" stroke-width="1px"></line><line x1="86.15384615384616" y1="0" x2="86.15384615384616" y2="5" style="visibility: inherit;" fill="rgb(0, 0, 0)" stroke="rgb(204, 204, 204)" stroke-width="1px"></line><line x1="107.6923076923077" y1="0" x2="107.6923076923077" y2="5" style="visibility: inherit;" fill="rgb(0, 0, 0)" stroke="rgb(204, 204, 204)" stroke-width="1px"></line><line x1="129.23076923076923" y1="0" x2="129.23076923076923" y2="5" style="visibility: inherit;" fill="rgb(0, 0, 0)" stroke="rgb(204, 204, 204)" stroke-width="1px"></line><line x1="150.76923076923077" y1="0" x2="150.76923076923077" y2="5" style="visibility: inherit;" fill="rgb(0, 0, 0)" stroke="rgb(204, 204, 204)" stroke-width="1px"></line><line x1="172.30769230769232" y1="0" x2="172.30769230769232" y2="5" style="visibility: inherit;" fill="rgb(0, 0, 0)" stroke="rgb(204, 204, 204)" stroke-width="1px"></line><line x1="193.84615384615384" y1="0" x2="193.84615384615384" y2="5" style="visibility: inherit;" fill="rgb(0, 0, 0)" stroke="rgb(204, 204, 204)" stroke-width="1px"></line><line x1="215.3846153846154" y1="0" x2="215.3846153846154" y2="5" style="visibility: inherit;" fill="rgb(0, 0, 0)" stroke="rgb(204, 204, 204)" stroke-width="1px"></line><line x1="236.92307692307693" y1="0" x2="236.92307692307693" y2="5" style="visibility: inherit;" fill="rgb(0, 0, 0)" stroke="rgb(204, 204, 204)" stroke-width="1px"></line><line x1="258.46153846153845" y1="0" x2="258.46153846153845" y2="5" style="visibility: inherit;" fill="rgb(0, 0, 0)" stroke="rgb(204, 204, 204)" stroke-width="1px"></line><line x1="280" y1="0" x2="280" y2="5" style="visibility: inherit;" fill="rgb(0, 0, 0)" stroke="rgb(204, 204, 204)" stroke-width="1px"></line></g><g transform="translate(0, 8)"><text x="0" y="0" dx="0em" dy="0.95em" style="text-anchor: middle; visibility: hidden; font-family: Roboto, sans-serif; font-size: 12px; font-weight: 200;" fill="rgb(255, 255, 255)" stroke="none" stroke-width="1px">-2k</text><text x="21.53846153846154" y="0" dx="0em" dy="0.95em" style="text-anchor: middle; visibility: inherit; font-family: Roboto, sans-serif; font-size: 12px; font-weight: 200;" fill="rgb(255, 255, 255)" stroke="none" stroke-width="1px">0</text><text x="43.07692307692308" y="0" dx="0em" dy="0.95em" style="text-anchor: middle; visibility: hidden; font-family: Roboto, sans-serif; font-size: 12px; font-weight: 200;" fill="rgb(255, 255, 255)" stroke="none" stroke-width="1px">2k</text><text x="64.61538461538461" y="0" dx="0em" dy="0.95em" style="text-anchor: middle; visibility: inherit; font-family: Roboto, sans-serif; font-size: 12px; font-weight: 200;" fill="rgb(255, 255, 255)" stroke="none" stroke-width="1px">4k</text><text x="86.15384615384616" y="0" dx="0em" dy="0.95em" style="text-anchor: middle; visibility: hidden; font-family: Roboto, sans-serif; font-size: 12px; font-weight: 200;" fill="rgb(255, 255, 255)" stroke="none" stroke-width="1px">6k</text><text x="107.6923076923077" y="0" dx="0em" dy="0.95em" style="text-anchor: middle; visibility: inherit; font-family: Roboto, sans-serif; font-size: 12px; font-weight: 200;" fill="rgb(255, 255, 255)" stroke="none" stroke-width="1px">8k</text><text x="129.23076923076923" y="0" dx="0em" dy="0.95em" style="text-anchor: middle; visibility: hidden; font-family: Roboto, sans-serif; font-size: 12px; font-weight: 200;" fill="rgb(255, 255, 255)" stroke="none" stroke-width="1px">10k</text><text x="150.76923076923077" y="0" dx="0em" dy="0.95em" style="text-anchor: middle; visibility: inherit; font-family: Roboto, sans-serif; font-size: 12px; font-weight: 200;" fill="rgb(255, 255, 255)" stroke="none" stroke-width="1px">12k</text><text x="172.30769230769232" y="0" dx="0em" dy="0.95em" style="text-anchor: middle; visibility: hidden; font-family: Roboto, sans-serif; font-size: 12px; font-weight: 200;" fill="rgb(255, 255, 255)" stroke="none" stroke-width="1px">14k</text><text x="193.84615384615384" y="0" dx="0em" dy="0.95em" style="text-anchor: middle; visibility: inherit; font-family: Roboto, sans-serif; font-size: 12px; font-weight: 200;" fill="rgb(255, 255, 255)" stroke="none" stroke-width="1px">16k</text><text x="215.3846153846154" y="0" dx="0em" dy="0.95em" style="text-anchor: middle; visibility: hidden; font-family: Roboto, sans-serif; font-size: 12px; font-weight: 200;" fill="rgb(255, 255, 255)" stroke="none" stroke-width="1px">18k</text><text x="236.92307692307693" y="0" dx="0em" dy="0.95em" style="text-anchor: middle; visibility: inherit; font-family: Roboto, sans-serif; font-size: 12px; font-weight: 200;" fill="rgb(255, 255, 255)" stroke="none" stroke-width="1px">20k</text><text x="258.46153846153845" y="0" dx="0em" dy="0.95em" style="text-anchor: middle; visibility: hidden; font-family: Roboto, sans-serif; font-size: 12px; font-weight: 200;" fill="rgb(255, 255, 255)" stroke="none" stroke-width="1px">22k</text><text x="280" y="0" dx="0em" dy="0.95em" style="text-anchor: middle; visibility: hidden; font-family: Roboto, sans-serif; font-size: 12px; font-weight: 200;" fill="rgb(255, 255, 255)" stroke="none" stroke-width="1px">24k</text></g><line x1="0" y1="0" x2="280" y2="0" fill="rgb(0, 0, 0)" stroke="rgb(204, 204, 204)" stroke-width="1px"></line></g></g></g></g></svg>